<?xml version="1.0" standalone="no"?>
<!DOCTYPE svg PUBLIC "-//W3C//DTD SVG 20010904//EN"
 "http://www.w3.org/TR/2001/REC-SVG-20010904/DTD/svg10.dtd">
<svg version="1.0" xmlns="http://www.w3.org/2000/svg"
 width="512.000000pt" height="512.000000pt" viewBox="0 0 512.000000 512.000000"
 preserveAspectRatio="xMidYMid meet">

<g transform="translate(0.000000,512.000000) scale(0.100000,-0.100000)"
fill="#000000" stroke="none">
<path d="M1611 5102 c-19 -9 -43 -29 -54 -43 -12 -17 -141 -515 -372 -1438
l-353 -1411 589 0 589 0 0 999 0 998 23 33 c36 54 71 74 127 74 54 0 87 -18
124 -68 21 -27 21 -39 26 -862 l5 -834 434 434 434 434 -202 807 c-111 443
-209 817 -218 831 -9 14 -33 34 -54 45 -36 18 -63 19 -551 19 -469 0 -516 -2
-547 -18z"/>
<path d="M4178 4310 c-82 -14 -146 -40 -206 -84 -72 -53 -113 -104 -155 -193
-30 -64 -32 -74 -32 -183 0 -89 4 -126 19 -164 l19 -48 -714 -714 -714 -714
215 0 215 0 606 606 607 607 42 -17 c62 -24 156 -35 234 -25 253 32 442 287
397 538 -36 202 -194 359 -391 390 -72 12 -75 12 -142 1z"/>
<path d="M3340 2305 l-95 -95 118 0 c77 0 117 4 117 11 0 11 -40 172 -44 176
-1 1 -44 -40 -96 -92z"/>
<path d="M810 1888 c-24 -13 -52 -36 -62 -53 -28 -50 -350 -1355 -343 -1392 8
-42 50 -92 92 -109 23 -10 82 -14 207 -14 l174 0 4 -109 c3 -91 7 -115 24
-137 70 -94 190 -96 251 -5 20 30 23 46 23 142 l0 109 974 0 974 0 4 -109 c3
-91 7 -115 24 -137 70 -94 190 -96 251 -5 20 30 23 46 23 142 l0 109 183 0
c153 0 187 3 217 18 48 24 80 75 80 129 0 55 -313 1316 -339 1363 -10 19 -34
44 -52 55 -33 20 -54 20 -1349 23 l-1315 2 -45 -22z"/>
</g>
</svg>
